<?xml version="1.0" encoding="UTF-8"?>
<!DOCTYPE svg PUBLIC "-//W3C//DTD SVG 1.1//EN" "http://www.w3.org/Graphics/SVG/1.1/DTD/svg11.dtd">
<!-- Creator: CorelDRAW X8 -->
<svg xmlns="http://www.w3.org/2000/svg" xml:space="preserve" width="320mm" height="90mm" version="1.1" style="shape-rendering:geometricPrecision; text-rendering:geometricPrecision; image-rendering:optimizeQuality; fill-rule:evenodd; clip-rule:evenodd"
viewBox="0 0 32000 9000"
 xmlns:xlink="http://www.w3.org/1999/xlink">
 <defs>
  <style type="text/css">
   <![CDATA[
    .fil0 {fill:#FEFEFE}
   ]]>
  </style>
 </defs>
 <g id="Layer_x0020_1">
  <metadata id="CorelCorpID_0Corel-Layer"/>
  <g id="_1016878009216">
   <path class="fil0" d="M13647 1339c-28,42 -102,74 -229,88 -247,32 -448,103 -642,223 -240,151 -318,271 -321,490 0,159 14,201 102,293 137,141 480,296 780,356 208,39 476,109 627,162 71,29 163,50 205,50 78,0 236,88 307,173 71,84 53,264 -35,345 -244,223 -738,328 -1200,258 -314,-50 -536,-138 -571,-229 -11,-32 -21,-99 -21,-149 0,-120 -180,-292 -307,-292 -53,0 -163,35 -240,81 -127,70 -141,95 -152,240 -10,151 -3,162 145,268 162,120 370,208 607,257 77,18 197,50 264,71 208,60 938,42 1217,-32 480,-131 737,-258 963,-487 177,-183 184,-197 184,-381 0,-180 -7,-197 -141,-303 -131,-106 -297,-187 -477,-230 -91,-21 -370,-102 -613,-169 -103,-32 -219,-56 -254,-56 -117,0 -516,-215 -554,-297 -89,-194 38,-345 409,-490 296,-120 885,-56 1118,116 88,64 194,226 194,293 0,60 148,166 226,166 138,0 272,-511 155,-589 -70,-46 -346,-109 -571,-138 -131,-14 -233,-49 -272,-88 -56,-56 -123,-67 -466,-67 -349,0 -402,7 -437,67l0 0zm-663 716c14,46 74,124 130,177 57,56 92,113 81,134 -35,56 -201,0 -306,-99 -106,-99 -124,-180 -57,-247 67,-67 127,-49 152,35l0 0zm1852 963c17,50 49,89 70,89 71,0 82,109 18,176 -81,88 -123,88 -123,3 0,-35 -32,-105 -71,-155 -92,-116 -92,-201 0,-201 46,0 85,35 106,88z"/>
   <path class="fil0" d="M16363 1403c-127,24 -95,95 78,180 123,60 159,95 159,162 0,49 -14,95 -32,109 -18,11 -46,71 -56,134 -25,106 -67,261 -173,625 -74,250 -152,529 -219,776 -71,268 -106,314 -307,391 -173,67 -215,177 -92,230 53,24 163,21 346,-14 219,-43 325,-43 593,-11 236,32 342,32 395,3 113,-59 88,-119 -88,-204 -145,-71 -163,-92 -145,-177 35,-179 102,-412 152,-525 28,-60 49,-155 49,-215l0 -103 593 14c420,15 610,32 666,67 43,29 135,50 198,50 141,0 215,-88 254,-289 35,-184 -28,-219 -275,-156 -166,43 -501,74 -1207,106 -98,4 -105,-3 -102,-120 4,-67 21,-173 42,-229 22,-60 60,-176 85,-265 25,-84 78,-197 120,-247l78 -88 621 7 620 7 159 106c272,184 289,187 388,124 81,-53 92,-81 81,-240l-10 -180 -1376 0c-755,0 -1408,-11 -1446,-21 -39,-11 -106,-14 -149,-7l0 0zm660 426c0,53 -21,127 -49,166 -25,39 -57,205 -67,371 -18,222 -43,324 -96,398 -105,138 -211,403 -211,519 0,141 -99,353 -163,353 -45,0 -52,-25 -38,-117 49,-303 102,-469 155,-511 39,-28 60,-81 53,-141 -7,-53 14,-156 42,-226 32,-74 57,-187 57,-251 0,-67 31,-162 70,-211 39,-50 81,-166 95,-261 22,-163 67,-237 124,-201 14,10 28,60 28,112l0 0z"/>
   <path class="fil0" d="M19676 1420c-32,32 -25,60 35,124 43,46 95,81 117,81 49,0 222,187 324,353 74,120 399,458 572,592 113,89 74,184 -113,268 -81,39 -364,230 -625,424 -490,363 -673,480 -758,480 -102,0 -303,119 -293,172 18,96 187,127 445,82 176,-29 299,-29 490,0 201,31 265,31 307,-8 85,-67 67,-116 -53,-183 -183,-106 -173,-123 561,-688 137,-106 254,-208 254,-226 0,-17 32,-31 70,-31 67,0 650,553 766,726 67,103 28,180 -116,226 -131,42 -152,106 -64,176 42,39 106,39 335,4 219,-32 357,-32 635,0 339,42 357,39 424,-28l74 -71 -131 -77c-70,-39 -134,-74 -141,-74 -25,0 -240,-223 -328,-339 -131,-166 -540,-572 -667,-656 -141,-96 -137,-159 14,-258 64,-39 215,-134 335,-212 124,-77 343,-225 487,-335 342,-254 406,-292 611,-370 158,-60 208,-127 127,-176 -22,-15 -191,-8 -378,17 -265,35 -388,35 -536,4 -155,-36 -198,-32 -240,7 -42,42 -32,63 71,130 63,46 119,88 127,92 38,28 -117,183 -322,321 -130,88 -317,222 -412,296 -159,124 -318,180 -318,110 0,-14 -127,-159 -282,-318 -155,-162 -282,-317 -282,-345 0,-68 127,-191 197,-191 32,0 50,-25 43,-63 -11,-50 -39,-57 -152,-43 -229,25 -833,21 -1005,-10 -113,-18 -173,-14 -205,17l0 0zm833 318c24,24 42,70 42,106 0,31 32,77 70,98 39,22 71,53 71,71 0,60 -78,39 -155,-46 -43,-42 -110,-95 -145,-116 -42,-22 -56,-57 -42,-96 24,-70 99,-77 159,-17l0 0zm479 596c117,92 117,138 4,138 -81,0 -159,-85 -159,-173 0,-60 53,-46 155,35zm427 367c95,85 166,162 152,176 -32,36 -416,-226 -416,-282 0,-88 81,-56 264,106l0 0zm730 783c82,74 82,116 -3,116 -60,0 -109,-63 -109,-144 0,-50 38,-39 112,28z"/>
   <path class="fil0" d="M2714 2606c-120,91 -254,190 -296,218 -42,29 -109,81 -148,113 -42,35 -92,64 -109,64 -22,0 -75,35 -117,74 -46,42 -113,95 -148,116 -282,166 -1136,797 -1136,836 0,71 300,367 367,364 42,-4 85,14 99,35 46,67 31,473 -14,501 -25,17 -247,25 -498,21 -533,-11 -589,0 -589,123 0,149 88,184 448,187 430,0 459,25 462,410 4,247 -7,289 -95,427 -159,239 -169,366 -39,564 191,289 448,441 1111,646 311,95 600,222 812,352 63,39 176,67 275,67 141,4 166,-7 166,-63 0,-88 -170,-229 -399,-335 -356,-163 -451,-198 -518,-198 -36,0 -75,-14 -89,-32 -10,-17 -70,-45 -134,-56 -60,-14 -204,-56 -321,-95 -684,-226 -966,-505 -698,-692 99,-70 384,-173 532,-190 50,-7 92,-28 99,-53 11,-28 -49,-46 -190,-53l-205 -11 0 -388c4,-215 7,-596 14,-846 14,-600 28,-554 -141,-544 -109,11 -152,-3 -180,-53 -42,-77 25,-162 251,-292 88,-50 176,-106 197,-124 50,-42 469,-335 741,-522 131,-88 339,-233 462,-328 127,-92 254,-166 286,-166 32,0 197,95 370,212 413,275 452,275 452,7 0,-229 39,-289 180,-289 127,0 141,53 134,497 -7,318 0,363 60,406 35,24 85,60 102,74 124,99 406,278 572,367 91,49 127,137 95,222 -25,63 -124,74 -180,18 -21,-22 -74,-32 -120,-25 -78,10 -85,28 -95,240 -7,127 3,388 25,582 21,194 42,494 45,667l11 314 -893 3c-571,4 -903,-7 -920,-32 -14,-17 -14,-328 -4,-688 14,-359 21,-659 14,-663 -7,-10 -677,-17 -808,-10 -49,3 -49,1344 0,1347 89,11 187,-14 290,-81l116 -70 159 102c250,159 180,286 -134,233 -85,-11 -205,3 -335,42 -367,116 -381,240 -46,363 120,43 208,64 638,149 106,21 268,52 360,74 92,21 251,53 353,67 885,148 1545,497 1545,818 0,85 14,99 102,99 142,0 198,-155 96,-258 -29,-28 -74,-98 -99,-158 -57,-131 -311,-346 -565,-473 -243,-124 -829,-300 -1125,-342 -130,-18 -268,-50 -307,-71 -42,-21 -127,-39 -194,-39 -77,0 -145,-28 -197,-84 -103,-110 -53,-138 137,-71 85,28 240,53 349,53 110,-4 223,0 251,0 28,4 282,-7 564,-18l512 -24 166 -166c169,-169 222,-304 208,-519 -4,-60 7,-151 28,-204 32,-81 56,-96 187,-96 85,0 208,-3 275,-7 67,-3 222,-3 346,0 367,11 349,-49 342,1228 -3,600 0,1125 11,1171 14,71 35,81 144,71l127 -11 4 -1386c3,-762 -7,-1390 -18,-1397 -10,-4 -339,3 -727,14 -836,28 -959,3 -920,-180 10,-60 21,-166 21,-236 0,-120 3,-120 120,-103 109,18 130,4 236,-127 67,-81 131,-169 141,-201 28,-63 -24,-176 -81,-176 -21,0 -120,-60 -219,-134 -98,-78 -236,-170 -303,-212 -265,-155 -289,-208 -272,-575 22,-458 7,-501 -194,-540 -98,-17 -225,-17 -317,0 -148,32 -152,36 -169,187 -11,89 -36,163 -53,170 -36,10 -357,-208 -480,-325 -81,-78 -134,-63 -371,117l0 0zm-239 2561c38,226 31,317 -39,490 -21,53 -39,42 -113,-81 -74,-120 -85,-169 -60,-275 14,-71 25,-170 17,-215 -10,-120 22,-187 92,-173 50,7 74,70 103,254z"/>
   <path class="fil0" d="M3349 4849c-7,21 -7,180 -3,353l7 314 423 4 424 0 0 -350 0 -352 -417 -4c-282,-4 -423,7 -434,35l0 0z"/>
   <path class="fil0" d="M6704 4941c-14,25 -24,519 -24,1101 -4,966 3,1065 60,1093 35,21 74,21 91,4 18,-18 29,-494 25,-1126 -11,-980 -18,-1090 -71,-1100 -31,-7 -67,7 -81,28l0 0z"/>
   <path class="fil0" d="M7011 4948c-21,28 -28,243 -14,568l18 522 109 46 109 42 -116 43c-113,38 -113,38 -113,282 0,134 -10,339 -21,455 -21,194 -18,212 49,229 142,39 163,-14 152,-423l-7 -388 138 -11c74,-10 236,-7 363,4l226 17 -11 385c-10,423 7,462 173,402 60,-21 120,-21 162,0 148,78 152,53 152,-1069 0,-889 -7,-1076 -49,-1111 -43,-32 -64,-25 -113,32 -60,70 -64,70 -148,0 -67,-53 -99,-60 -138,-28 -39,35 -42,134 -25,525l25 483 -261 18c-145,11 -314,11 -378,4l-116 -18 7 -490c0,-268 -7,-505 -21,-522 -32,-53 -106,-50 -152,3l0 0zm1171 261c36,88 25,1651 -14,1708 -46,74 -105,-103 -105,-314 0,-293 -36,-396 -145,-434 -109,-39 -106,-99 3,-99 103,0 142,-110 142,-416 0,-413 52,-614 119,-445l0 0z"/>
   <path class="fil0" d="M9227 4969c-187,92 -265,155 -346,286 -64,109 -71,180 -74,780 -4,515 7,688 49,786 198,480 1380,494 1623,25 35,-71 49,-275 56,-787 8,-839 -14,-903 -321,-1055 -172,-88 -232,-98 -529,-95 -236,0 -370,21 -458,60l0 0zm575 103c-46,7 -117,7 -159,0 -46,-8 -11,-15 78,-15 88,0 123,7 81,15zm-417 81c11,21 -17,49 -63,67 -162,63 -208,275 -194,892 10,512 18,554 99,670 53,82 123,138 194,152 102,25 106,25 24,60 -102,50 -303,-53 -398,-204 -60,-99 -67,-180 -67,-741 0,-544 7,-646 60,-720 127,-180 289,-265 345,-176l0 0zm801 7c159,130 170,190 170,896l0 674 -124 127c-137,144 -261,190 -356,137 -53,-28 -46,-39 49,-56 67,-18 145,-78 208,-156l99 -130 0 -600c0,-536 -7,-610 -70,-705 -39,-60 -89,-120 -113,-134 -25,-14 -46,-43 -46,-60 0,-50 116,-43 183,7l0 0zm-289 137l141 74 0 667 0 667 -95 60c-141,95 -448,77 -561,-28 -85,-78 -85,-89 -85,-681 0,-332 14,-621 28,-642 36,-57 293,-191 367,-191 36,0 127,32 205,74l0 0z"/>
   <path class="fil0" d="M10959 4937c-39,25 -50,226 -50,1094 0,586 11,1072 18,1083 14,11 956,28 1111,18 25,-4 39,-67 39,-163 0,-95 -14,-162 -39,-162 -24,-3 -169,-7 -324,-10l-282 -4 -4 -910c-4,-554 -21,-928 -42,-949 -25,-25 -60,-21 -113,7 -74,39 -78,60 -57,258 11,116 22,543 22,948l0 738 116 49 113 53 -177 -10 -176 -8 -18 -1019c-10,-635 -31,-1027 -53,-1034 -17,-3 -56,4 -84,21l0 0z"/>
   <path class="fil0" d="M12440 4937c-42,29 -49,216 -45,1105l7 1069 91 0 92 0 -3 -1069c0,-590 -11,-1083 -22,-1101 -28,-42 -56,-42 -120,-4l0 0z"/>
   <path class="fil0" d="M12754 4959c-31,38 -42,317 -42,1100 4,1016 7,1048 74,1076 43,14 81,11 95,-14 32,-49 29,-2127 -3,-2176 -32,-53 -71,-50 -124,14z"/>
   <path class="fil0" d="M13421 4948c-63,25 -67,71 -67,1101l0 1072 81 11c43,7 357,10 702,3l621 -10 127 -124 127 -123 0 -826 0 -822 -88 -109c-67,-78 -141,-117 -275,-141 -215,-46 -1129,-67 -1228,-32l0 0zm307 208c11,21 4,57 -18,78 -45,46 -56,1570 -10,1633 14,21 56,57 95,78 60,35 46,42 -88,35l-159 -11 -10 -881c-4,-484 0,-900 10,-925 18,-56 145,-60 180,-7l0 0zm1020 39c63,74 70,145 81,766 14,853 7,899 -162,987 -82,39 -159,57 -202,39 -67,-25 -67,-25 15,-53 201,-63 211,-116 215,-871 0,-381 -11,-720 -21,-752 -15,-31 -64,-74 -110,-91 -46,-18 -74,-46 -63,-67 39,-64 176,-39 247,42l0 0zm-272 141c67,67 60,1383 -7,1436 -32,28 -152,39 -328,32l-275 -11 -11 -706c-3,-388 0,-723 7,-747 25,-60 554,-64 614,-4l0 0z"/>
   <path class="fil0" d="M15778 4973c-159,74 -304,204 -342,307 -18,38 -36,469 -39,952 -11,879 -11,879 67,889 42,7 102,-3 137,-21 39,-25 82,-21 134,14 113,74 156,14 166,-250l11 -247 346 -11 342 -10 0 264c0,272 31,328 162,279 46,-18 53,-67 42,-297 -7,-151 -28,-292 -53,-317 -21,-21 -172,-53 -335,-64l-293 -24 311 -21c173,-11 321,-32 335,-46 32,-32 56,-808 28,-917 -10,-46 -70,-135 -130,-195 -60,-59 -103,-119 -88,-130 38,-42 204,39 278,134 64,88 67,148 64,981l-7 885 109 0 106 0 0 -892c0,-886 0,-893 -85,-1016 -56,-81 -159,-163 -286,-223 -169,-77 -239,-91 -522,-88 -229,0 -363,21 -458,64l0 0zm585 99c-45,7 -123,7 -176,0 -56,-8 -18,-15 78,-15 98,0 141,7 98,15zm-398 81c0,21 -39,53 -85,77 -49,21 -99,64 -113,96 -39,95 -60,790 -25,920 29,103 53,127 173,155l138 36 -141 39c-138,38 -141,45 -173,250 -42,293 -49,318 -102,265 -46,-46 -85,-1422 -46,-1577 35,-131 194,-297 289,-297 46,0 85,18 85,36zm494 144c77,43 141,99 141,134 3,32 7,230 10,445l7 388 -370 0 -370 0 14 -423c10,-445 21,-470 197,-561 141,-74 201,-71 371,17l0 0z"/>
   <path class="fil0" d="M17520 4937c-35,22 -45,138 -42,484 7,547 46,656 286,790 145,81 197,88 557,88l395 0 0 198c0,144 -17,211 -60,250 -81,71 -254,103 -412,74 -106,-17 -145,-49 -219,-173 -99,-169 -124,-183 -187,-105 -78,91 74,307 275,395l92 39 -95 28c-141,35 -314,-110 -395,-335 -46,-127 -82,-177 -131,-177 -183,0 -102,325 127,515 138,110 194,131 437,163 343,38 611,-4 812,-131 247,-155 254,-194 261,-1189 7,-811 3,-885 -57,-914 -31,-21 -77,-24 -95,-14 -21,14 -35,371 -35,914l0 893 -124 127c-144,148 -211,172 -352,137l-106 -28 113 -25c116,-24 225,-109 289,-233 39,-70 53,-539 18,-575 -11,-10 -71,-3 -134,14 -78,25 -152,25 -219,4l-102 -35 141 -25c95,-18 169,-63 229,-138 78,-95 92,-158 113,-500 14,-212 17,-413 7,-449 -18,-63 -109,-109 -159,-77 -17,10 -32,222 -32,469 0,455 0,455 -95,515 -144,99 -448,85 -564,-21 -88,-85 -88,-88 -71,-476 25,-459 -3,-551 -144,-452 -75,53 -82,74 -60,233 14,99 28,279 31,399 11,278 113,451 300,501l127 35 -99 28c-123,32 -307,-56 -416,-205 -70,-98 -74,-134 -60,-518 21,-480 -10,-582 -145,-498l0 0z"/>
   <path class="fil0" d="M20530 4945c-11,21 -22,515 -22,1100l0 1066 99 10 103 11 -4 -1083c-3,-1069 -3,-1087 -78,-1112 -45,-17 -84,-14 -98,8z"/>
   <path class="fil0" d="M20840 4983c-14,46 -18,304 -7,575l18 494 88 11c145,21 166,74 42,99 -134,28 -141,42 -159,553 -14,413 11,487 149,413 77,-39 77,-99 21,-571 -32,-230 -14,-240 374,-240 412,0 405,-7 360,451 -36,304 -29,336 63,367 113,43 134,-39 116,-427 -24,-497 -31,-518 -144,-550l-99 -28 109 -46 113 -46 14 -504c15,-480 -3,-628 -77,-628 -18,0 -57,35 -81,77 -39,64 -43,170 -21,505 17,271 14,437 -8,458 -42,43 -585,50 -673,11 -50,-25 -57,-64 -46,-198 49,-564 49,-744 -4,-800 -74,-74 -116,-67 -148,24l0 0z"/>
   <path class="fil0" d="M22057 4976c-35,53 -42,113 -21,223 39,194 35,1474 -4,1700 -24,145 -17,183 29,222 31,25 81,39 109,35 42,-10 49,-176 46,-1104 0,-603 -4,-1104 -4,-1122 -7,-53 -105,-21 -155,46l0 0z"/>
   <path class="fil0" d="M22974 5019c-321,176 -342,236 -342,1047 0,752 11,794 251,963 271,191 952,212 1224,36 247,-159 236,-117 236,-1016 0,-928 14,-886 -303,-1052 -159,-81 -219,-91 -519,-91 -317,3 -356,10 -547,113zm621 53c-46,7 -116,7 -158,0 -46,-8 -11,-15 77,-15 88,0 124,7 81,15zm-381 84c14,21 -7,46 -49,57 -162,42 -191,155 -194,825 -4,603 0,625 85,748 60,88 123,134 211,148 120,25 120,28 43,64 -67,28 -110,24 -212,-32 -251,-131 -251,-131 -254,-914l0 -702 113 -116c113,-117 215,-148 257,-78zm815 25c43,35 92,95 117,137 53,106 53,1352 -4,1475 -56,127 -300,243 -416,201 -88,-35 -85,-35 35,-60 74,-14 152,-60 194,-116 64,-88 71,-152 71,-731 0,-712 -18,-818 -141,-864 -50,-17 -89,-49 -89,-70 0,-57 152,-39 233,28l0 0zm-356 92c63,28 134,81 155,120 25,45 39,306 39,666 0,734 -14,762 -349,762 -357,0 -357,0 -357,-790l0 -663 117 -53c233,-106 243,-106 395,-42z"/>
   <path class="fil0" d="M25278 4959c-247,77 -384,165 -459,292 -63,106 -70,187 -70,999l0 878 102 0 106 0 -7 -885 -7 -886 141 -120c145,-123 208,-144 247,-84 11,21 -18,49 -64,67 -176,67 -201,204 -201,1090 0,846 4,864 149,825 56,-14 63,-95 70,-899l11 -882 148 -50c190,-63 402,-14 487,117 53,84 60,183 49,892l-14 798 106 0c84,0 102,-15 95,-71 -3,-39 -14,-420 -18,-850 -10,-702 -17,-787 -81,-872 -35,-52 -95,-95 -127,-95 -84,0 -113,-67 -42,-95 35,-11 106,4 162,35 131,74 254,78 311,7 49,-60 162,-70 194,-17 10,21 -14,49 -60,67 -187,70 -208,173 -223,1037 -3,353 -21,684 -35,737 -21,85 -14,102 57,131 176,63 180,53 169,-822 -7,-558 3,-840 28,-889 67,-117 289,-173 455,-117 237,81 226,32 226,970 0,537 14,865 35,879 21,10 64,14 99,3 60,-21 64,-77 49,-874 -17,-921 -31,-988 -208,-1055 -88,-32 -81,-103 14,-103 29,0 117,50 191,110l138 109 0 896 0 896 105 0 103 0 -4 -875c-3,-797 -7,-882 -70,-984 -92,-152 -216,-236 -459,-307 -268,-77 -455,-70 -727,21l-222 74 -236 -77c-268,-85 -484,-92 -713,-21l0 0z"/>
   <path class="fil0" d="M28418 5004c-110,57 -226,149 -272,216 -77,116 -81,148 -81,829 0,645 7,719 71,825 38,64 98,124 134,138 31,10 84,42 113,67 31,24 165,63 303,88 282,46 720,-7 794,-95 21,-28 53,-50 70,-50 50,0 173,-137 208,-232 53,-138 43,-219 -35,-262 -60,-31 -78,-24 -109,60 -88,244 -127,300 -251,364 -95,49 -155,60 -211,39 -75,-29 -71,-32 42,-57 215,-39 377,-374 194,-398 -53,-4 -88,28 -134,130 -57,124 -81,141 -219,162 -296,43 -476,-77 -476,-321 0,-84 21,-162 46,-180 21,-14 278,-24 571,-21 304,4 547,-10 572,-28 28,-25 35,-169 28,-487 -14,-540 -32,-617 -152,-698 -225,-149 -363,-187 -691,-187 -279,0 -346,14 -515,98l0 0zm222 138c14,11 -21,49 -78,85 -120,70 -180,240 -180,497 0,215 46,332 149,360 77,21 77,25 14,74 -36,28 -81,57 -99,60 -18,7 -39,99 -49,205 -18,169 -7,211 77,342 67,99 131,152 205,169 106,21 106,25 28,57 -102,38 -307,-64 -399,-205 -60,-88 -67,-176 -67,-758l0 -660 131 -127c120,-117 215,-152 268,-99l0 0zm868 106c106,127 109,141 109,490 0,427 -21,459 -271,420l-170 -25 124 -42c120,-39 123,-46 155,-279 39,-285 -11,-490 -138,-575 -113,-74 -113,-120 -3,-120 56,0 123,46 194,131l0 0zm-332 78c103,56 106,70 117,345l10 286 -254 14c-137,7 -303,7 -370,0l-120 -14 0 -240c0,-310 18,-349 190,-427 156,-74 258,-63 427,36z"/>
   <path class="fil0" d="M30538 4973c-85,35 -208,116 -272,180l-120 116 0 363c0,350 4,371 92,448 113,99 378,194 561,202 78,3 229,31 335,67l194 60 -10 137c-18,177 -82,251 -240,275 -219,36 -325,-7 -441,-176 -60,-85 -127,-148 -148,-141 -60,21 -39,243 24,293 32,21 57,56 57,74 0,21 67,49 151,63 145,25 145,25 50,53 -106,32 -201,14 -201,-39 0,-17 -18,-31 -39,-31 -67,0 -169,-156 -173,-258 0,-67 -25,-109 -88,-138 -127,-56 -173,0 -141,180 17,113 60,173 183,283 138,116 201,144 416,176 480,78 956,-78 1020,-332 14,-49 46,-88 74,-88 42,0 53,-49 53,-212 0,-137 -14,-211 -42,-211 -22,0 -85,-50 -134,-113 -103,-120 -290,-187 -695,-236 -120,-18 -261,-57 -311,-89 -74,-49 -88,-84 -88,-243 0,-222 74,-321 279,-378 183,-49 409,36 441,163 14,49 14,102 0,123 -11,21 -11,74 0,124 17,63 46,84 113,84 91,0 91,-3 77,-194 -14,-162 -35,-211 -127,-296 -63,-53 -113,-109 -113,-120 0,-63 173,-11 279,81 109,103 116,120 102,311l-10 201 116 10 113 11 0 -247c0,-183 -14,-251 -46,-251 -25,0 -81,-49 -127,-109 -127,-169 -342,-243 -702,-240 -201,4 -360,25 -462,64l0 0zm155 180c11,21 -7,46 -42,60 -138,53 -184,158 -187,423 0,219 10,265 70,300 89,56 92,134 4,134 -134,0 -215,-162 -212,-420 4,-307 29,-381 156,-462 116,-78 179,-88 211,-35l0 0zm293 977c-53,7 -148,7 -212,0 -63,-7 -21,-14 96,-14 116,0 169,7 116,14zm533 106c84,49 109,91 127,222 35,243 -43,388 -272,508 -102,56 -145,63 -212,32 -81,-39 -77,-39 36,-67 289,-60 409,-558 158,-653 -45,-18 -74,-46 -63,-67 32,-53 102,-42 226,25l0 0z"/>
  </g>
 </g>
</svg>
