<?xml version="1.0" standalone="no"?>
<!DOCTYPE svg PUBLIC "-//W3C//DTD SVG 20010904//EN"
 "http://www.w3.org/TR/2001/REC-SVG-20010904/DTD/svg10.dtd">
<svg version="1.0" xmlns="http://www.w3.org/2000/svg"
 width="900.000000pt" height="183.000000pt" viewBox="0 0 900.000000 183.000000"
 preserveAspectRatio="xMidYMid meet">
<metadata>
Created by potrace 1.10, written by Peter Selinger 2001-2011
</metadata>
<g transform="translate(0.000000,183.000000) scale(0.100000,-0.100000)"
fill="#b3d817" stroke="none">
<path d="M3833 1811 c-8 -12 -29 -21 -65 -25 -70 -9 -127 -29 -182 -63 -68
-43 -90 -77 -91 -139 0 -45 4 -57 29 -83 39 -40 136 -84 221 -101 59 -11 135
-31 178 -46 20 -8 46 -14 58 -14 22 0 67 -25 87 -49 20 -24 15 -75 -10 -98
-69 -63 -209 -93 -340 -73 -89 14 -152 39 -162 65 -3 9 -6 28 -6 42 0 34 -51
83 -87 83 -15 0 -46 -10 -68 -23 -36 -20 -40 -27 -43 -68 -3 -43 -1 -46 41
-76 46 -34 105 -59 172 -73 22 -5 56 -14 75 -20 59 -17 266 -12 345 9 136 37
209 73 273 138 50 52 52 56 52 108 0 51 -2 56 -40 86 -37 30 -84 53 -135 65
-26 6 -105 29 -174 48 -29 9 -62 16 -72 16 -33 0 -146 61 -157 84 -25 55 11
98 116 139 84 34 251 16 317 -33 25 -18 55 -64 55 -83 0 -17 42 -47 64 -47 39
0 77 145 44 167 -20 13 -98 31 -162 39 -37 4 -66 14 -77 25 -16 16 -35 19
-132 19 -99 0 -114 -2 -124 -19z m-188 -203 c4 -13 21 -35 37 -50 16 -16 26
-32 23 -38 -10 -16 -57 0 -87 28 -30 28 -35 51 -16 70 19 19 36 14 43 -10z
m525 -273 c5 -14 14 -25 20 -25 20 0 23 -31 5 -50 -23 -25 -35 -25 -35 -1 0
10 -9 30 -20 44 -26 33 -26 57 0 57 13 0 24 -10 30 -25z"/>
<path d="M4603 1793 c-36 -7 -27 -27 22 -51 35 -17 45 -27 45 -46 0 -14 -4
-27 -9 -31 -5 -3 -13 -20 -16 -38 -7 -30 -19 -74 -49 -177 -21 -71 -43 -150
-62 -220 -20 -76 -30 -89 -87 -111 -49 -19 -61 -50 -26 -65 15 -7 46 -6 98 4
62 12 92 12 168 3 67 -9 97 -9 112 -1 32 17 25 34 -25 58 -41 20 -46 26 -41
50 10 51 29 117 43 149 8 17 14 44 14 61 l0 29 168 -4 c119 -4 173 -9 189 -19
12 -8 38 -14 56 -14 40 0 61 25 72 82 10 52 -8 62 -78 44 -47 -12 -142 -21
-342 -30 -28 -1 -30 1 -29 34 1 19 6 49 12 65 6 17 17 50 24 75 7 24 22 56 34
70 l22 25 176 -2 176 -2 45 -30 c77 -52 82 -53 110 -35 23 15 26 23 23 68 l-3
51 -390 0 c-214 0 -399 3 -410 6 -11 3 -30 4 -42 2z m187 -121 c0 -15 -6 -36
-14 -47 -7 -11 -16 -58 -19 -105 -5 -63 -12 -92 -27 -113 -30 -39 -60 -114
-60 -147 0 -40 -28 -100 -46 -100 -13 0 -15 7 -11 33 14 86 29 133 44 145 11
8 17 23 15 40 -2 15 4 44 12 64 9 21 16 53 16 71 0 19 9 46 20 60 11 14 23 47
27 74 6 46 19 67 35 57 4 -3 8 -17 8 -32z"/>
<path d="M5542 1788 c-9 -9 -7 -17 10 -35 12 -13 27 -23 33 -23 14 0 63 -53
92 -100 21 -34 113 -130 162 -168 32 -25 21 -52 -32 -76 -23 -11 -103 -65
-177 -120 -139 -103 -191 -136 -215 -136 -29 0 -86 -34 -83 -49 5 -27 53 -36
126 -23 50 8 85 8 139 0 57 -9 75 -9 87 2 24 19 19 33 -15 52 -52 30 -49 35
159 195 39 30 72 59 72 64 0 5 9 9 20 9 19 0 184 -157 217 -206 19 -29 8 -51
-33 -64 -37 -12 -43 -30 -18 -50 12 -11 30 -11 95 -1 62 9 101 9 180 0 96 -12
101 -11 120 8 l21 20 -37 22 c-20 11 -38 21 -40 21 -7 0 -68 63 -93 96 -37 47
-153 162 -189 186 -40 27 -39 45 4 73 18 11 61 38 95 60 35 22 97 64 138 95
97 72 115 83 173 105 45 17 59 36 36 50 -6 4 -54 2 -107 -5 -75 -10 -110 -10
-152 -1 -44 10 -56 9 -68 -2 -12 -12 -9 -18 20 -37 18 -13 34 -25 36 -26 11
-8 -33 -52 -91 -91 -37 -25 -90 -63 -117 -84 -45 -35 -90 -51 -90 -31 0 4 -36
45 -80 90 -44 46 -80 90 -80 98 0 19 36 54 56 54 9 0 14 7 12 18 -3 14 -11 16
-43 12 -65 -7 -236 -6 -285 3 -32 5 -49 4 -58 -5z m236 -90 c7 -7 12 -20 12
-30 0 -9 9 -22 20 -28 11 -6 20 -15 20 -20 0 -17 -22 -11 -44 13 -12 12 -31
27 -41 33 -12 6 -16 16 -12 27 7 20 28 22 45 5z m136 -169 c33 -26 33 -39 1
-39 -23 0 -45 24 -45 49 0 17 15 13 44 -10z m121 -104 c27 -24 47 -46 43 -50
-9 -10 -118 64 -118 80 0 25 23 16 75 -30z m207 -222 c23 -21 23 -33 -1 -33
-17 0 -31 18 -31 41 0 14 11 11 32 -8z"/>
<path d="M734 1452 c-34 -26 -72 -54 -84 -62 -12 -8 -31 -23 -42 -32 -12 -10
-26 -18 -31 -18 -6 0 -21 -10 -33 -21 -13 -12 -32 -27 -42 -33 -80 -47 -322
-226 -322 -237 0 -20 85 -104 104 -103 12 1 24 -4 28 -10 13 -19 9 -134 -4
-142 -7 -5 -70 -7 -141 -6 -151 3 -167 0 -167 -35 0 -42 25 -52 127 -53 122 0
130 -7 131 -116 1 -70 -2 -82 -27 -121 -45 -68 -48 -104 -11 -160 54 -82 127
-125 315 -183 88 -27 170 -63 230 -100 18 -11 50 -19 78 -19 40 -1 47 2 47 18
0 25 -48 65 -113 95 -101 46 -128 56 -147 56 -10 0 -21 4 -25 9 -3 5 -20 13
-38 16 -17 4 -58 16 -91 27 -194 64 -274 143 -198 196 28 20 109 49 151 54 14
2 26 8 28 15 3 8 -14 13 -54 15 l-58 3 0 110 c1 61 2 169 4 240 4 170 8 157
-40 154 -31 -3 -43 1 -51 15 -12 22 7 46 71 83 25 14 50 30 56 35 14 12 133
95 210 148 37 25 96 66 131 93 36 26 72 47 81 47 9 0 56 -27 105 -60 117 -78
128 -78 128 -2 0 65 11 82 51 82 36 0 40 -15 38 -141 -2 -90 0 -103 17 -115
10 -7 24 -17 29 -21 35 -28 115 -79 162 -104 26 -14 36 -39 27 -63 -7 -18 -35
-21 -51 -5 -6 6 -21 9 -34 7 -22 -3 -24 -8 -27 -68 -2 -36 1 -110 7 -165 6
-55 12 -140 13 -189 l3 -89 -253 -1 c-162 -1 -256 2 -261 9 -4 5 -4 93 -1 195
4 102 6 187 4 188 -2 3 -192 5 -229 3 -14 -1 -14 -381 0 -382 25 -3 53 4 82
23 l33 20 45 -29 c71 -45 51 -81 -38 -66 -24 3 -58 -1 -95 -12 -104 -33 -108
-68 -13 -103 34 -12 59 -18 181 -42 30 -6 76 -15 102 -21 26 -6 71 -15 100
-19 251 -42 438 -141 438 -232 0 -24 4 -28 29 -28 40 0 56 44 27 73 -8 8 -21
28 -28 45 -16 37 -88 98 -160 134 -69 35 -235 85 -319 97 -37 5 -76 14 -87 20
-12 6 -36 11 -55 11 -22 0 -41 8 -56 24 -29 31 -15 39 39 20 24 -8 68 -15 99
-15 31 1 63 0 71 0 8 -1 80 2 160 5 l145 7 47 47 c48 48 63 86 59 147 -1 17 2
43 8 58 9 23 16 27 53 27 24 0 59 1 78 2 19 1 63 1 98 0 104 -3 99 14 97 -348
-1 -170 0 -319 3 -332 4 -20 10 -23 41 -20 l36 3 1 393 c1 216 -2 394 -5 396
-3 1 -96 -1 -206 -4 -237 -8 -272 -1 -261 51 3 17 6 47 6 67 0 34 1 34 34 29
31 -5 37 -1 67 36 19 23 37 48 40 57 8 18 -7 50 -23 50 -6 0 -34 17 -62 38
-28 22 -67 48 -86 60 -75 44 -82 59 -77 163 6 130 2 142 -55 153 -28 5 -64 5
-90 0 -42 -9 -43 -10 -48 -53 -3 -25 -10 -46 -15 -48 -10 -3 -101 59 -136 92
-23 22 -38 18 -105 -33z m-68 -726 c11 -64 9 -90 -11 -139 -6 -15 -11 -12 -32
23 -21 34 -24 48 -17 78 4 20 7 48 5 61 -3 34 6 53 26 49 14 -2 21 -20 29 -72z"/>
<path d="M914 816 c-2 -6 -2 -51 -1 -100 l2 -89 120 -1 120 0 0 99 0 100 -118
1 c-80 1 -120 -2 -123 -10z"/>
<path d="M1865 790 c-4 -7 -7 -147 -7 -312 -1 -274 1 -302 17 -310 10 -6 21
-6 26 -1 5 5 8 140 7 319 -3 278 -5 309 -20 312 -9 2 -19 -2 -23 -8z"/>
<path d="M1952 788 c-6 -8 -8 -69 -4 -161 l5 -148 31 -13 31 -12 -33 -12 c-32
-11 -32 -11 -32 -80 0 -38 -3 -96 -6 -129 -6 -55 -5 -60 14 -65 40 -11 46 4
43 120 l-2 110 39 3 c21 3 67 2 103 -1 l64 -5 -3 -109 c-3 -120 2 -131 49
-114 17 6 34 6 46 0 42 -22 43 -15 43 303 0 252 -2 305 -14 315 -12 9 -18 7
-32 -9 -17 -20 -18 -20 -42 0 -19 15 -28 17 -39 8 -11 -10 -12 -38 -7 -149 l7
-137 -74 -5 c-41 -3 -89 -3 -107 -1 l-33 5 2 139 c0 76 -2 143 -6 148 -9 15
-30 14 -43 -1z m332 -74 c10 -25 7 -468 -4 -484 -13 -21 -30 29 -30 89 0 83
-10 112 -41 123 -31 11 -30 28 1 28 29 0 40 31 40 118 0 117 15 174 34 126z"/>
<path d="M2580 782 c-53 -26 -75 -44 -98 -81 -18 -31 -20 -51 -21 -221 -1
-146 2 -195 14 -223 56 -136 391 -140 460 -7 10 20 14 78 16 223 2 238 -4 256
-91 299 -49 25 -66 28 -150 27 -67 0 -105 -6 -130 -17z m163 -29 c-13 -2 -33
-2 -45 0 -13 2 -3 4 22 4 25 0 35 -2 23 -4z m-118 -23 c3 -6 -5 -14 -18 -19
-46 -18 -59 -78 -55 -253 3 -145 5 -157 28 -190 15 -23 35 -39 55 -43 29 -7
30 -7 7 -17 -29 -14 -86 15 -113 58 -17 28 -19 51 -19 210 0 154 2 183 17 204
36 51 82 75 98 50z m227 -2 c45 -37 48 -54 48 -254 l0 -191 -35 -36 c-39 -41
-74 -54 -101 -39 -15 8 -13 11 14 16 19 5 41 22 59 44 l28 37 0 170 c0 152 -2
173 -20 200 -11 17 -25 34 -32 38 -7 4 -13 12 -13 17 0 14 33 12 52 -2z m-82
-39 l40 -21 0 -189 0 -189 -27 -17 c-40 -27 -127 -22 -159 8 -24 22 -24 25
-24 193 0 94 4 176 8 182 10 16 83 54 104 54 10 0 36 -9 58 -21z"/>
<path d="M3071 791 c-11 -7 -14 -64 -14 -310 0 -166 3 -304 5 -307 4 -3 271
-8 315 -5 7 1 11 19 11 46 0 27 -4 46 -11 46 -7 1 -48 2 -92 3 l-80 1 -1 258
c-1 157 -6 263 -12 269 -7 7 -17 6 -32 -2 -21 -11 -22 -17 -16 -73 3 -33 6
-154 6 -269 l0 -209 33 -14 32 -15 -50 3 -50 2 -5 289 c-3 180 -9 291 -15 293
-5 1 -16 -1 -24 -6z"/>
<path d="M3491 791 c-12 -8 -14 -61 -13 -313 l2 -303 26 0 26 0 -1 303 c0 167
-3 307 -6 312 -8 12 -16 12 -34 1z"/>
<path d="M3580 785 c-9 -11 -12 -90 -12 -312 1 -288 2 -297 21 -305 12 -4 23
-3 27 4 9 14 8 603 -1 617 -9 15 -20 14 -35 -4z"/>
<path d="M3769 788 c-18 -7 -19 -20 -19 -312 l0 -304 23 -3 c12 -2 101 -3 199
-1 l176 3 36 35 36 35 0 234 0 233 -25 31 c-19 22 -40 33 -78 40 -61 13 -320
19 -348 9z m87 -59 c3 -6 1 -16 -5 -22 -13 -13 -16 -445 -3 -463 4 -6 16 -16
27 -22 17 -10 13 -12 -25 -10 l-45 3 -3 250 c-1 137 0 255 3 262 5 16 41 17
51 2z m289 -11 c18 -21 20 -41 23 -217 4 -242 2 -255 -46 -280 -23 -11 -45
-16 -57 -11 -19 7 -19 7 4 15 57 18 60 33 61 247 0 108 -3 204 -6 213 -4 9
-18 21 -31 26 -13 5 -21 13 -18 19 11 18 50 11 70 -12z m-77 -40 c19 -19 17
-392 -2 -407 -9 -8 -43 -11 -93 -9 l-78 3 -3 200 c-1 110 0 205 2 212 7 17
157 18 174 1z"/>
<path d="M4437 781 c-45 -21 -86 -58 -97 -87 -5 -11 -10 -133 -11 -270 -3
-249 -3 -249 19 -252 12 -2 29 1 39 6 11 7 23 6 38 -4 32 -21 44 -4 47 71 l3
70 98 3 97 3 0 -75 c0 -77 9 -93 46 -79 13 5 15 19 12 84 -2 43 -8 83 -15 90
-6 6 -49 15 -95 18 l-83 7 88 6 c49 3 91 9 95 13 9 9 16 229 8 260 -3 13 -20
38 -37 55 -17 17 -29 34 -25 37 11 12 58 -11 79 -38 18 -25 19 -42 18 -278
l-2 -251 31 0 30 0 0 253 c0 251 0 253 -24 288 -16 23 -45 46 -81 63 -48 22
-68 26 -148 25 -65 0 -103 -6 -130 -18z m166 -28 c-13 -2 -35 -2 -50 0 -16 2
-5 4 22 4 28 0 40 -2 28 -4z m-113 -23 c0 -6 -11 -15 -24 -22 -14 -6 -28 -18
-32 -27 -11 -27 -17 -224 -7 -261 8 -29 15 -36 49 -44 l39 -10 -40 -11 c-39
-11 -40 -13 -49 -71 -12 -83 -14 -90 -29 -75 -13 13 -24 403 -13 447 10 37 55
84 82 84 13 0 24 -5 24 -10z m140 -41 c22 -12 40 -28 40 -38 1 -9 2 -65 3
-126 l2 -110 -105 0 -105 0 4 120 c3 126 6 133 56 159 40 21 57 20 105 -5z"/>
<path d="M4931 791 c-10 -6 -13 -39 -12 -137 2 -155 13 -186 81 -224 41 -23
56 -25 158 -25 l112 0 0 -56 c0 -41 -5 -60 -17 -71 -23 -20 -72 -29 -117 -21
-30 5 -41 14 -62 49 -28 48 -35 52 -53 30 -22 -26 21 -87 78 -112 l26 -11 -27
-8 c-40 -10 -89 31 -112 95 -13 36 -23 50 -37 50 -52 0 -29 -92 36 -146 39
-31 55 -37 124 -46 97 -11 173 1 230 37 70 44 72 55 74 337 2 230 1 251 -16
259 -9 6 -22 7 -27 4 -6 -4 -10 -105 -10 -259 l0 -253 -35 -36 c-41 -42 -60
-49 -100 -39 l-30 8 32 7 c33 7 64 31 82 66 11 20 15 153 5 163 -3 3 -20 1
-38 -4 -22 -7 -43 -7 -62 -1 l-29 10 40 7 c27 5 48 18 65 39 22 27 26 45 32
142 4 60 5 117 2 127 -5 18 -31 31 -45 22 -5 -3 -9 -63 -9 -133 0 -129 0 -129
-27 -146 -41 -28 -127 -24 -160 6 -25 24 -25 25 -20 135 7 130 -1 156 -41 128
-21 -15 -23 -21 -17 -66 4 -28 8 -79 9 -113 3 -79 32 -128 85 -142 l36 -10
-28 -8 c-35 -9 -87 16 -118 58 -20 28 -21 38 -17 147 6 136 -3 165 -41 141z"/>
<path d="M5784 789 c-3 -6 -6 -146 -6 -312 l0 -302 28 -3 29 -3 -1 307 c-1
303 -1 308 -22 315 -13 5 -24 4 -28 -2z"/>
<path d="M5872 778 c-4 -13 -5 -86 -2 -163 l5 -140 25 -3 c41 -6 47 -21 12
-28 -38 -8 -40 -12 -45 -157 -4 -117 3 -138 42 -117 22 11 22 28 6 162 -9 65
-4 68 106 68 117 0 115 2 102 -128 -10 -86 -8 -95 18 -104 32 -12 38 11 33
121 -7 141 -9 147 -41 156 l-28 8 31 13 32 13 4 143 c4 136 -1 178 -22 178 -5
0 -16 -10 -23 -22 -11 -18 -12 -48 -6 -143 5 -77 4 -124 -2 -130 -12 -12 -166
-14 -191 -3 -14 7 -16 18 -13 56 14 160 14 211 -1 227 -21 21 -33 19 -42 -7z"/>
<path d="M6217 780 c-10 -15 -12 -32 -6 -63 11 -55 10 -418 -1 -482 -7 -41 -5
-52 8 -63 9 -7 23 -11 31 -10 12 3 14 50 13 313 0 171 -1 313 -1 318 -2 15
-30 6 -44 -13z"/>
<path d="M6477 768 c-91 -50 -97 -67 -97 -297 0 -213 3 -225 71 -273 77 -54
270 -60 347 -10 70 45 67 33 67 288 0 263 4 251 -86 298 -45 23 -62 26 -147
26 -90 -1 -101 -3 -155 -32z m176 -15 c-13 -2 -33 -2 -45 0 -13 2 -3 4 22 4
25 0 35 -2 23 -4z m-108 -24 c4 -6 -2 -13 -14 -16 -46 -12 -54 -44 -55 -234
-1 -171 0 -177 24 -212 17 -25 35 -38 60 -42 34 -7 34 -8 12 -18 -19 -8 -31
-7 -60 9 -71 37 -71 37 -72 259 l0 199 32 33 c32 33 61 42 73 22z m231 -7 c12
-10 26 -27 33 -39 15 -30 15 -383 -1 -418 -16 -36 -85 -69 -118 -57 -25 10
-24 10 10 17 21 4 43 17 55 33 18 25 20 43 20 207 0 202 -5 232 -40 245 -14 5
-25 14 -25 20 0 16 43 11 66 -8z m-101 -26 c18 -8 38 -23 44 -34 7 -13 11 -87
11 -189 0 -208 -4 -216 -99 -216 -101 0 -101 0 -101 224 l0 188 33 15 c66 30
69 30 112 12z"/>
<path d="M7130 785 c-70 -22 -109 -47 -130 -83 -18 -30 -20 -53 -20 -283 l0
-249 29 0 30 0 -2 251 -2 251 40 34 c41 35 59 41 70 24 3 -6 -5 -14 -18 -19
-50 -19 -57 -58 -57 -309 0 -240 1 -245 42 -234 16 4 18 27 20 255 l3 250 42
14 c54 18 114 4 138 -33 15 -24 17 -52 14 -253 l-4 -226 30 0 c24 0 29 4 27
20 -1 11 -4 119 -5 241 -3 199 -5 223 -23 247 -10 15 -27 27 -36 27 -24 0 -32
19 -12 27 10 3 30 -1 46 -10 37 -21 72 -22 88 -2 14 17 46 20 55 5 3 -6 -4
-14 -17 -19 -53 -20 -59 -49 -63 -294 -1 -100 -6 -194 -10 -209 -6 -24 -4 -29
16 -37 50 -18 51 -15 48 233 -2 158 1 238 8 252 19 33 82 49 129 33 67 -23 64
-9 64 -275 0 -152 4 -245 10 -249 6 -3 18 -4 28 -1 17 6 18 22 14 248 -5 261
-9 280 -59 299 -25 9 -23 29 4 29 8 0 33 -14 54 -31 l39 -31 0 -254 0 -254 30
0 29 0 -1 248 c-1 226 -2 250 -20 279 -26 43 -61 67 -130 87 -76 22 -129 20
-206 -6 l-63 -21 -67 22 c-76 24 -137 26 -202 6z"/>
<path d="M8020 772 c-31 -16 -64 -42 -77 -61 -22 -33 -23 -42 -23 -235 0 -183
2 -204 20 -234 11 -18 28 -35 38 -39 9 -3 24 -12 32 -19 9 -7 47 -18 86 -25
80 -13 204 2 225 27 6 8 15 14 20 14 14 0 49 39 59 66 15 39 12 62 -10 74 -17
9 -22 7 -31 -17 -25 -69 -36 -85 -71 -103 -27 -14 -44 -17 -60 -11 -21 8 -20
9 12 16 61 11 107 106 55 113 -15 1 -25 -8 -38 -37 -16 -35 -23 -40 -62 -46
-84 -12 -135 22 -135 91 0 24 6 46 13 51 6 4 79 7 162 6 86 -1 155 3 162 8 8
7 10 48 8 138 -4 153 -9 175 -43 198 -64 42 -103 53 -196 53 -79 0 -98 -4
-146 -28z m63 -39 c4 -3 -6 -14 -22 -24 -34 -20 -51 -68 -51 -141 0 -61 13
-94 42 -102 22 -6 22 -7 4 -21 -10 -8 -23 -16 -28 -17 -5 -2 -11 -28 -14 -58
-5 -48 -2 -60 22 -97 19 -28 37 -43 58 -48 30 -6 30 -7 8 -16 -29 -11 -87 18
-113 58 -17 25 -19 50 -19 215 l0 187 37 36 c34 33 61 43 76 28z m246 -30 c30
-36 31 -40 31 -139 0 -121 -6 -130 -77 -119 l-48 7 35 12 c34 11 35 13 44 79
11 81 -3 139 -39 163 -32 21 -32 34 -1 34 16 0 35 -13 55 -37z m-94 -22 c29
-16 30 -20 33 -98 l3 -81 -72 -4 c-39 -2 -86 -2 -105 0 l-34 4 0 68 c0 88 5
99 54 121 44 21 73 18 121 -10z"/>
<path d="M8621 781 c-24 -10 -59 -33 -77 -51 l-34 -33 0 -103 c0 -99 1 -105
26 -127 32 -28 107 -55 159 -57 22 -1 65 -9 95 -19 l55 -17 -3 -39 c-5 -50
-23 -71 -68 -78 -62 -10 -92 2 -125 50 -17 24 -36 42 -42 40 -17 -6 -11 -69 7
-83 9 -6 16 -16 16 -21 0 -6 19 -14 43 -18 41 -7 41 -7 14 -15 -30 -9 -57 -4
-57 11 0 5 -5 9 -11 9 -19 0 -48 44 -49 73 0 19 -7 31 -25 39 -36 16 -49 0
-40 -51 5 -32 17 -49 52 -80 39 -33 57 -41 118 -50 136 -22 271 22 289 94 4
14 13 25 21 25 12 0 15 14 15 60 0 39 -4 60 -12 60 -6 0 -24 14 -38 32 -29 34
-82 53 -197 67 -34 5 -74 16 -88 25 -21 14 -25 24 -25 69 0 63 21 91 79 107
52 14 116 -10 125 -46 4 -14 4 -29 0 -35 -3 -6 -3 -21 0 -35 5 -18 13 -24 32
-24 26 0 26 1 22 55 -4 46 -10 60 -36 84 -18 15 -32 31 -32 34 0 18 49 3 79
-23 31 -29 33 -34 29 -88 l-3 -57 33 -3 32 -3 0 70 c0 52 -4 71 -13 71 -7 0
-23 14 -36 31 -36 48 -97 69 -199 68 -57 -1 -102 -7 -131 -18z m44 -51 c3 -6
-2 -13 -12 -17 -39 -15 -52 -45 -53 -120 0 -62 3 -75 20 -85 25 -16 26 -38 1
-38 -38 0 -61 46 -60 119 1 87 8 108 44 131 33 22 51 25 60 10z m83 -277 c-15
-2 -42 -2 -60 0 -18 2 -6 4 27 4 33 0 48 -2 33 -4z m151 -30 c24 -14 31 -26
36 -63 10 -69 -12 -110 -77 -144 -29 -16 -41 -18 -60 -9 -23 11 -22 11 10 19
82 17 116 158 45 185 -13 5 -21 13 -18 19 9 15 29 12 64 -7z"/>
</g>
</svg>
