<?xml version="1.0" encoding="UTF-8"?>
<!DOCTYPE svg PUBLIC "-//W3C//DTD SVG 1.1//EN" "http://www.w3.org/Graphics/SVG/1.1/DTD/svg11.dtd">
<!-- Creator: CorelDRAW X7 -->
<svg xmlns="http://www.w3.org/2000/svg" xml:space="preserve" width="831px" height="326px" version="1.1" style="shape-rendering:geometricPrecision; text-rendering:geometricPrecision; image-rendering:optimizeQuality; fill-rule:evenodd; clip-rule:evenodd"
viewBox="0 0 837 329"
 xmlns:xlink="http://www.w3.org/1999/xlink">
 <defs>
  <style type="text/css">
   <![CDATA[
    .str0 {stroke:#FEFEFE;stroke-width:2.08524}
    .fil1 {fill:none}
    .fil0 {fill:#FEFEFE;fill-rule:nonzero}
   ]]>
  </style>
 </defs>
 <g id="Layer_x0020_1">
  <metadata id="CorelCorpID_0Corel-Layer"/>
  <path class="fil0" d="M239 93c0,6 -7,15 -21,29 -20,20 -34,36 -42,46 -17,23 -28,45 -34,69 -15,3 -26,10 -33,21l0 0c0,6 0,12 0,17l-4 0c-1,-30 -4,-56 -10,-81 -13,-57 -37,-97 -72,-119 -9,1 -16,1 -23,1l0 -4c14,0 28,-2 42,-5 8,-2 18,-5 30,-10 10,-3 16,-4 19,-4 7,0 15,7 24,23 8,13 14,27 19,41 3,-6 10,-14 21,-24 8,-8 13,-15 13,-21 0,-5 -3,-10 -8,-13 -5,-3 -10,-5 -16,-5 -7,0 -13,1 -17,4l-2 -4c4,-3 11,-5 19,-5 22,0 43,5 63,13 21,9 32,19 32,31zm-5 0c0,-9 -8,-18 -24,-26 -14,-6 -30,-11 -49,-13 8,4 11,10 11,18 0,6 -5,14 -15,25 -12,11 -19,23 -23,35 -5,-16 -11,-32 -19,-47 -9,-18 -17,-28 -24,-28 -3,0 -10,3 -23,7 -14,5 -27,8 -38,10 26,18 47,47 60,87 10,27 16,57 18,90 8,-10 18,-15 30,-17 6,-23 17,-46 34,-68 9,-13 23,-28 42,-47 14,-13 20,-22 20,-26zm-85 98c-3,8 -9,21 -15,38 -8,1 -15,5 -21,10 -2,-12 -5,-31 -10,-57 2,4 5,11 8,20 1,3 2,7 3,10 1,4 3,6 7,6 6,0 11,-4 15,-10 7,-10 11,-15 13,-17zm202 62c0,0 0,0 0,1 1,1 1,2 1,3 0,1 -1,3 -2,4 -1,1 -3,1 -4,1 -2,0 -4,0 -5,-1 -1,-1 -1,-2 -1,-3 0,-2 1,-4 2,-6 2,-1 5,-3 8,-4 3,-1 6,-1 10,-1 3,0 5,0 7,1 3,1 5,2 6,4 1,2 2,4 2,7l0 27c0,2 1,3 2,3 1,0 2,-1 3,-2l1 2c-1,2 -3,3 -4,4 -2,1 -3,2 -5,2 -3,0 -4,-1 -6,-2 -1,-1 -2,-3 -2,-5 -5,4 -10,6 -15,6 -3,0 -6,0 -8,-2 -2,-2 -3,-4 -3,-7 0,-2 1,-4 2,-6 1,-2 3,-3 5,-4 2,-2 5,-3 9,-5 4,-2 7,-4 9,-5l0 -8c0,-3 0,-4 -2,-6 -1,-1 -2,-2 -4,-2 -2,0 -4,1 -5,1 -1,1 -1,2 -1,3zm14 7l0 21c0,4 0,7 1,9 1,2 3,3 5,3 1,0 2,0 3,-1 -2,0 -4,-1 -4,-2 -1,-2 -2,-4 -2,-7l0 -23c0,-4 0,-7 -1,-8 -1,-1 -3,-2 -6,-2 2,0 3,1 3,3 1,1 1,3 1,7zm-2 25l0 -17c-4,3 -7,5 -9,7 -2,2 -3,4 -3,7 0,2 1,4 2,5 1,1 2,1 3,1 3,0 5,-1 7,-3zm-9 7c-3,0 -6,-1 -8,-2 -2,-1 -3,-3 -3,-5 0,-2 1,-4 2,-6 1,-1 2,-3 4,-5 -3,2 -5,3 -7,5 -1,2 -2,4 -2,6 0,2 1,4 3,6 2,1 4,2 6,2 2,0 4,-1 5,-1zm-5 -33c-1,0 -2,0 -3,-1 -1,0 -1,-1 -1,-2 0,-1 0,-2 1,-3 1,0 2,-2 3,-3 -2,1 -4,2 -6,3 -1,2 -2,3 -2,5 0,0 1,1 1,2 1,0 2,1 3,1 2,0 3,-1 4,-2zm55 26l0 -50c0,-2 0,-4 -1,-6 -1,-1 -3,-3 -6,-4l0 -2 17 -5 2 0 0 65c0,3 0,5 1,6 1,1 2,1 5,1l1 0 0 3 -26 0 0 -3 1 0c2,0 4,0 5,-1 1,-1 1,-2 1,-4zm5 -2l0 -47c0,-3 0,-5 0,-6 0,-2 -1,-3 -2,-4 -1,-1 -3,-1 -5,-1 -1,0 -2,0 -3,0 3,1 5,2 6,4 0,2 1,4 1,7l0 49c0,2 -1,4 -2,5 2,0 4,-1 4,-2 1,-1 1,-3 1,-5zm42 -30c0,0 0,0 1,1 0,1 0,2 0,3 0,1 0,3 -1,4 -2,1 -3,1 -5,1 -2,0 -3,0 -4,-1 -1,-1 -2,-2 -2,-3 0,-2 1,-4 3,-6 1,-1 4,-3 7,-4 3,-1 6,-1 10,-1 3,0 5,0 8,1 2,1 4,2 5,4 2,2 2,4 2,7l0 27c0,2 1,3 2,3 1,0 2,-1 3,-2l2 2c-2,2 -3,3 -5,4 -1,1 -3,2 -5,2 -2,0 -4,-1 -5,-2 -2,-1 -3,-3 -3,-5 -5,4 -10,6 -14,6 -4,0 -6,0 -8,-2 -2,-2 -3,-4 -3,-7 0,-2 0,-4 2,-6 1,-2 2,-3 4,-4 2,-2 5,-3 9,-5 4,-2 7,-4 9,-5l0 -8c0,-3 0,-4 -1,-6 -1,-1 -3,-2 -5,-2 -2,0 -3,1 -4,1 -1,1 -2,2 -2,3zm14 7l0 21c0,4 1,7 2,9 0,2 2,3 5,3 1,0 2,0 2,-1 -2,0 -3,-1 -4,-2 -1,-2 -1,-4 -1,-7l0 -23c0,-4 -1,-7 -2,-8 -1,-1 -3,-2 -5,-2 1,0 2,1 3,3 0,1 0,3 0,7zm-2 25l0 -17c-4,3 -7,5 -9,7 -2,2 -2,4 -2,7 0,2 0,4 1,5 1,1 2,1 4,1 2,0 4,-1 6,-3zm-9 7c-3,0 -5,-1 -7,-2 -2,-1 -3,-3 -3,-5 0,-2 0,-4 1,-6 1,-1 3,-3 4,-5 -2,2 -5,3 -6,5 -2,2 -2,4 -2,6 0,2 0,4 2,6 2,1 4,2 6,2 3,0 4,-1 5,-1zm-5 -33c-1,0 -2,0 -3,-1 0,0 0,-1 0,-2 0,-1 0,-2 0,-3 1,0 2,-2 3,-3 -2,1 -4,2 -5,3 -2,2 -2,3 -2,5 0,0 0,1 1,2 1,0 1,1 2,1 2,0 3,-1 4,-2zm68 -12l0 7c2,-3 5,-4 8,-6 2,-1 5,-1 9,-1 9,0 14,4 14,14l0 24c0,2 1,4 2,4 1,1 3,1 5,1l0 3 -25 0 0 -3c2,0 4,0 5,-1 1,-1 1,-2 1,-4l0 -26c0,-1 0,-3 -1,-4 0,-2 -1,-2 -2,-3 -1,-1 -3,-1 -4,-1 -2,0 -4,0 -6,1 -2,1 -4,3 -6,5l0 28c0,1 0,2 0,3 1,1 2,2 2,2 1,0 3,0 4,0l0 3 -25 0 0 -3c2,0 4,0 5,-1 1,0 2,-2 2,-4l0 -23c0,-2 -1,-4 -2,-5 -1,-2 -3,-3 -5,-3l0 -2 17 -5 2 0zm-11 14l0 24c0,1 0,2 0,3 0,1 -1,1 -1,2 3,0 5,-2 5,-5l0 -25c0,-2 -1,-4 -2,-5 -1,-1 -3,-2 -4,-2 -1,0 -1,0 -1,0 -1,0 -1,1 -1,1 3,1 4,3 4,7zm32 -2l0 26c0,1 0,1 0,2 0,0 0,1 -1,1 0,1 0,1 -1,2l1 0c2,0 3,0 4,-2 0,-1 0,-3 0,-6l0 -23c0,-3 0,-5 -2,-7 -1,-1 -3,-2 -7,-2 2,0 4,2 5,3 0,1 1,3 1,6zm35 4c0,-5 2,-8 5,-12 4,-3 9,-4 14,-4 7,0 12,2 17,6 1,-2 3,-3 4,-3 2,-1 3,-1 5,-1 2,0 3,0 5,1 1,1 1,3 1,4 0,2 0,2 -1,3 0,1 -1,2 -3,2 0,0 -1,-1 -2,-1 0,0 -1,-1 -2,-2 0,-1 -1,-1 -1,-2 -1,0 -2,0 -2,0 -1,0 -1,0 -2,1 2,3 3,6 3,9 0,3 -1,5 -2,8 -2,2 -4,4 -7,6 -1,0 -3,1 -5,1 -1,1 -3,1 -5,1 -4,0 -7,1 -9,1 -2,1 -4,3 -4,5 0,2 3,3 7,3 1,0 3,0 4,0 1,0 3,0 5,0 6,0 12,1 15,3 3,2 5,5 5,10 0,2 0,5 -2,7 -1,2 -2,3 -4,5 -3,1 -6,3 -9,3 -4,1 -8,2 -12,2 -7,0 -12,-1 -16,-3 -3,-2 -5,-5 -5,-8 0,-2 1,-4 3,-6 1,-1 4,-2 7,-3 -4,-2 -6,-4 -6,-8 0,-3 1,-5 3,-7 2,-2 5,-4 9,-5 -9,-4 -13,-9 -13,-16zm24 -14c2,1 4,3 5,5 1,3 1,5 1,9 0,6 -2,11 -5,14 6,-2 9,-6 9,-13 0,-9 -4,-14 -10,-15zm5 14c0,-5 -1,-8 -3,-10 -1,-2 -3,-4 -6,-4 -2,0 -4,2 -5,4 -2,3 -2,6 -2,10 0,4 0,7 2,10 1,3 3,4 6,4 2,0 4,-1 5,-4 2,-2 3,-6 3,-10zm-12 -15c-3,1 -6,1 -8,3 -2,1 -4,3 -5,5 -2,2 -2,4 -2,7 0,3 1,6 3,9 2,2 6,4 10,5 -3,-1 -6,-4 -7,-6 -2,-3 -3,-5 -3,-8 0,-3 1,-5 3,-8 2,-3 5,-5 9,-7zm-8 34c-3,2 -4,3 -5,4 -1,2 -2,3 -2,5 0,2 1,4 4,6 2,1 5,2 9,2 8,0 13,0 16,0 2,0 5,1 7,2 2,1 3,3 3,6 0,0 0,1 0,1 1,-1 1,-3 1,-4 0,-3 -1,-5 -3,-6 -3,-1 -6,-2 -11,-2 -3,0 -6,-1 -10,-1 -3,0 -5,0 -7,0 -2,-1 -3,-1 -4,-2 -1,-1 -2,-2 -2,-4 0,-1 1,-2 1,-3 1,-1 2,-2 3,-4zm11 34c4,0 7,0 10,-1 3,-1 5,-2 7,-3 1,-2 2,-3 2,-5 0,-4 -4,-6 -14,-6 -4,0 -7,0 -10,0 -3,1 -5,2 -6,3 -1,1 -2,3 -2,5 0,2 1,4 3,5 2,2 6,2 10,2zm-11 0c-5,-2 -7,-5 -7,-8 0,-1 1,-3 2,-4 2,-1 4,-2 6,-4 -4,1 -6,2 -8,3 -2,1 -3,3 -3,5 0,2 1,4 2,5 2,2 4,3 8,3zm40 -63c0,0 -1,1 -2,1 0,0 -1,-1 -3,-1 -1,-1 -2,-1 -3,-1 0,0 0,0 -1,0 0,0 0,0 -1,0 1,0 1,0 1,0 1,0 2,1 4,3 1,1 2,2 3,2 1,0 2,0 2,-1 1,-1 1,-1 1,-2 0,0 0,-1 -1,-1zm46 -2l0 -4 19 0 0 36c0,1 0,3 1,3 0,1 1,1 2,2 1,0 2,0 3,0l1 0 0 3 -19 3 0 -7c-6,5 -12,7 -17,7 -5,0 -8,-1 -11,-4 -3,-2 -4,-6 -4,-11l0 -18c0,-3 0,-5 0,-6 0,-1 -1,-2 -2,-3 -1,0 -3,-1 -5,-1l0 -4 19 0 0 31c0,3 0,5 1,7 0,1 1,3 2,3 1,1 3,2 4,2 4,0 8,-2 13,-6l0 -25c0,-5 -2,-8 -7,-8zm12 35l0 -28c0,-2 0,-4 -1,-5 -1,-2 -2,-3 -4,-3 0,0 -1,0 -1,0 -1,1 -1,1 -1,1 1,0 2,2 3,3 0,1 1,3 1,5l0 33c1,-1 2,-1 2,-2 1,-1 1,-2 1,-4zm-32 -6l0 -23c0,-4 -1,-7 -5,-7 0,0 0,0 -1,0 0,1 -1,1 -1,1 2,1 3,2 3,3 1,1 1,3 1,5l0 19c0,5 1,8 3,11 2,3 5,4 9,4 1,0 2,0 3,0 -4,-1 -7,-2 -9,-4 -2,-2 -3,-5 -3,-9zm68 0l0 -29 -6 0 0 -3c3,-2 6,-4 7,-5 2,-1 3,-3 5,-4 1,-2 2,-3 3,-5l3 0 0 13 13 0 0 4 -13 0 0 31c0,2 0,4 1,5 0,1 1,2 3,2 1,0 2,-1 3,-1 1,-1 2,-2 4,-3l2 2c-3,2 -5,4 -7,6 -2,1 -5,1 -8,1 -2,0 -5,0 -6,-1 -2,-1 -3,-3 -3,-5 -1,-2 -1,-5 -1,-8zm5 -38l-3 3 0 34c0,5 0,8 1,10 2,3 4,4 7,4 2,0 3,-1 5,-1 -3,0 -6,-1 -7,-2 -2,-2 -3,-5 -3,-8l0 -40zm77 38l2 2c-2,3 -4,5 -6,7 -2,2 -4,3 -7,4 -3,1 -5,1 -8,1 -4,0 -8,0 -11,-2 -3,-2 -6,-5 -8,-8 -2,-4 -3,-8 -3,-12 0,-4 1,-7 2,-10 1,-3 3,-6 5,-8 2,-2 5,-4 7,-5 3,-2 6,-2 9,-2 3,0 6,0 9,2 3,1 5,3 7,5 1,2 2,3 2,5 1,2 1,4 2,6l-32 0c0,4 1,7 2,10 1,2 3,4 4,6 2,1 4,2 6,3 2,1 4,1 6,1 4,0 8,-2 12,-5zm-10 -18l4 0c0,-4 -1,-7 -2,-9 -2,-1 -4,-3 -8,-3 2,1 4,2 5,4 1,1 1,4 1,7l0 1zm-20 0l19 0 0 -2c0,-2 -1,-3 -1,-5 -1,-2 -2,-3 -3,-4 -2,-1 -3,-1 -5,-1 -2,0 -5,1 -7,4 -1,2 -2,5 -3,8zm1 -10c-7,5 -10,12 -10,20 0,6 2,11 6,15 4,4 8,6 13,6 3,0 6,-1 9,-2 3,-1 6,-3 8,-5 -2,1 -4,2 -7,3 -2,1 -5,1 -8,1 -5,0 -9,-2 -13,-5 -3,-4 -5,-9 -5,-14 0,-4 1,-7 2,-10 1,-3 3,-6 5,-9zm-435 -15c-3,6 -7,12 -10,19 -4,8 -7,15 -9,23 0,3 0,8 0,13 0,7 1,11 1,12 0,8 -5,14 -13,19 -7,4 -15,6 -25,6 -31,0 -55,-9 -73,-26 -19,-17 -28,-39 -28,-66 0,-26 12,-48 35,-66 21,-16 46,-24 75,-24 11,0 20,1 28,3 9,2 14,6 14,12 0,4 -2,9 -8,16 -7,10 -11,18 -14,22 -4,9 -7,21 -9,37l-4 -1c0,-3 1,-8 2,-13 1,-5 2,-8 2,-9 0,-4 -3,-8 -7,-11 -5,-4 -10,-6 -16,-6 -10,0 -19,4 -27,11 -8,7 -12,16 -12,26 0,8 5,16 14,22 8,7 18,10 29,10 25,0 42,-10 51,-31l4 2zm-9 -75c0,-4 -4,-6 -13,-9 -7,-1 -16,-2 -25,-2 -28,0 -52,8 -72,23 -22,17 -33,38 -33,63 0,26 8,47 26,63 17,16 41,24 70,24 9,0 16,-1 22,-4 8,-4 11,-9 11,-16 0,0 0,-5 0,-13 -1,-5 0,-9 0,-13 2,-7 4,-13 7,-19 -11,7 -24,11 -39,11 -12,0 -23,-3 -32,-11 -10,-7 -15,-16 -15,-25 0,-12 5,-21 13,-29 9,-8 19,-12 30,-12 12,0 20,5 25,14 1,-2 2,-5 4,-9 2,-4 6,-11 14,-20 4,-7 7,-12 7,-16zm-8 9c-4,4 -10,13 -18,25 0,0 0,0 -1,1 -6,-6 -14,-9 -23,-9 -10,0 -20,3 -28,9 -9,5 -15,13 -18,23 1,-9 5,-18 13,-27 9,-10 20,-15 32,-15 5,0 9,1 13,2 4,0 6,1 7,1 9,0 17,-3 23,-10zm-11 133c0,10 -9,15 -28,15 -24,0 -44,-5 -60,-17 -16,-12 -26,-27 -30,-46 4,10 11,20 20,28 16,16 37,24 62,24 16,0 26,-2 31,-7 2,-2 4,-8 4,-16 0,2 1,5 1,10 0,4 0,7 0,9zm306 -147l22 -15 0 -8 -8 0 35 -44 13 15 23 -24 40 47 -6 0 0 21 13 10 1 9 -14 -13 -36 0 0 -6 30 0 0 -25 -28 -33 -19 19 8 11 -8 0 -17 -20 -22 28 1 10 36 18 -14 -1 -23 -11 -16 12 -11 0zm-67 88c38,-43 83,-53 136,-58 44,-4 85,-1 109,49l-63 0c0,0 -10,-23 -48,-24 -37,-1 -88,7 -134,33zm222 -26c0,0 3,-39 6,-71 3,-31 7,-54 8,-66 1,-11 1,-18 4,-18 2,0 6,-1 4,5 -3,6 -1,16 -3,25 -1,10 -4,51 -5,62 -2,11 0,58 0,65 -1,7 -14,-2 -14,-2zm-497 -137l0 38c0,2 0,3 0,4 1,1 1,1 2,1 1,1 2,1 4,1l0 3 -24 0 0 -3c2,0 4,0 4,-1 1,-1 2,-2 2,-5l0 -23c0,-2 -1,-3 -2,-5 -1,-1 -2,-2 -4,-3l0 -1 16 -6 2 0zm-11 15l0 24c0,2 0,4 -2,5 2,0 4,0 5,-1 0,-1 1,-3 1,-5l0 -24c0,-2 -1,-4 -2,-5 -1,-1 -2,-2 -4,-2 -1,0 -1,0 -2,0 3,2 4,4 4,8zm4 -40c2,0 3,0 4,1 1,1 2,2 3,3 0,1 1,2 1,3 0,2 -1,3 -1,4 -1,1 -2,2 -3,3 -1,0 -2,1 -4,1 -2,0 -3,-1 -5,-3 -1,-1 -2,-3 -2,-5 0,-1 0,-2 1,-3 1,-1 2,-2 3,-3 1,-1 2,-1 3,-1zm1 2c-2,0 -3,0 -5,1 -1,1 -1,2 -1,4 0,2 0,3 1,4 1,1 3,2 5,2 -1,-1 -2,-2 -2,-3 -1,-1 -1,-2 -1,-3 0,-2 1,-4 3,-5zm35 62l0 -50c0,-2 -1,-4 -2,-6 0,-1 -2,-3 -5,-4l0 -2 17 -5 2 0 0 65c0,3 0,4 1,5 0,2 2,2 4,2l2 0 0 3 -26 0 0 -3 1 0c2,0 3,0 4,-1 1,-1 2,-2 2,-4zm5 -2l0 -47c0,-3 0,-5 -1,-6 0,-2 0,-3 -1,-4 -2,-1 -3,-1 -6,-1 -1,0 -2,0 -2,0 3,1 5,2 5,4 1,1 1,4 1,7l0 48c0,3 0,5 -2,6 3,0 4,-1 5,-2 0,-1 1,-3 1,-5zm35 2l0 -50c0,-2 0,-4 -1,-6 -1,-1 -3,-3 -6,-4l0 -2 17 -5 2 0 0 65c0,3 1,4 1,5 1,2 2,2 5,2l1 0 0 3 -26 0 0 -3 2 0c2,0 3,0 4,-1 1,-1 1,-2 1,-4zm6 -2l0 -47c0,-3 -1,-5 -1,-6 0,-2 -1,-3 -2,-4 -1,-1 -3,-1 -5,-1 -1,0 -2,0 -3,0 4,1 6,2 6,4 1,1 1,4 1,7l0 48c0,3 -1,5 -2,6 2,0 4,-1 5,-2 0,-1 1,-3 1,-5zm41 -30c0,0 1,0 1,1 0,1 1,2 1,3 0,1 -1,2 -2,4 -1,1 -3,1 -5,1 -2,0 -3,0 -4,-1 -1,-1 -2,-2 -2,-3 0,-2 1,-4 3,-6 2,-1 4,-3 7,-4 3,-1 7,-2 11,-2 2,0 5,1 7,2 2,1 4,2 6,4 1,2 2,4 2,7l0 27c0,2 0,3 2,3 0,0 1,-1 2,-2l2 2c-1,2 -3,3 -4,4 -2,1 -4,1 -6,1 -2,0 -4,0 -5,-1 -1,-1 -2,-3 -3,-5 -5,4 -9,6 -14,6 -3,0 -6,-1 -8,-2 -2,-2 -3,-4 -3,-7 0,-2 1,-4 2,-6 1,-2 3,-3 5,-5 2,-1 5,-2 8,-4 4,-2 7,-4 10,-6l0 -7c0,-3 -1,-5 -2,-6 -1,-1 -2,-2 -5,-2 -2,0 -3,1 -4,1 -1,1 -2,2 -2,3zm15 7l0 21c0,4 0,7 1,9 1,2 2,3 5,3 1,0 2,-1 3,-1 -2,0 -4,-1 -5,-2 -1,-2 -1,-4 -1,-7l0 -24c0,-3 -1,-6 -2,-7 -1,-1 -2,-2 -5,-3 2,1 2,2 3,3 0,2 1,4 1,8zm-2 25l0 -17c-5,2 -8,5 -9,7 -2,2 -3,4 -3,7 0,2 0,3 1,4 1,2 3,2 4,2 2,0 5,-1 7,-3zm-9 7c-4,0 -6,-1 -8,-2 -2,-1 -3,-3 -3,-6 0,-1 1,-3 2,-5 0,-1 2,-3 4,-5 -3,2 -5,3 -7,5 -1,2 -2,4 -2,6 0,2 1,4 3,5 1,2 4,3 6,3 2,0 3,-1 5,-1zm-5 -33c-2,0 -2,0 -3,-1 -1,0 -1,-1 -1,-2 0,-1 0,-2 1,-3 0,-1 1,-2 3,-3 -3,1 -5,2 -6,3 -1,2 -2,3 -2,5 0,0 0,1 1,2 1,0 2,0 3,0 1,0 3,0 4,-1z"/>
  <path class="fil1 str0" d="M788 68c0,0 4,6 7,15 3,9 4,21 2,33m-2 -3c0,0 3,-3 3,-5m-5 1c0,0 1,-1 2,-3 1,-2 3,-4 3,-6m-8 -2c0,0 1,-2 2,-5 2,-2 3,-5 4,-7m-7 9c0,0 1,-2 3,-4 1,-3 2,-6 3,-8m-6 9c0,-1 1,-3 2,-5 1,-2 2,-5 2,-6m-5 7c1,0 2,-2 3,-5 1,-2 1,-4 2,-5m1 33c0,0 1,-1 2,-2 1,-1 2,-3 2,-5m-7 -1c0,0 1,-2 3,-4 1,-3 2,-6 3,-8m2 23c0,-2 -1,-3 -1,-4m2 0c0,-2 -1,-4 -2,-4m2 0c1,-1 -1,-4 -2,-4m2 0c0,0 0,-3 -2,-4m3 0c0,-1 -1,-2 -2,-2 0,-1 -1,-1 -2,-1m3 -1c0,-1 -2,-3 -3,-2m1 -10c-1,-2 -3,-3 -4,-2m-5 -9c0,0 0,3 -1,4m0 -6c0,0 -1,2 -2,3m2 13c0,-1 1,-3 2,-4 1,-2 1,-4 2,-5m1 31c0,0 1,-1 2,-3 1,-2 2,-5 2,-6m-5 7c0,0 1,-2 2,-4 2,-2 3,-5 3,-6m-7 6c0,0 2,-2 3,-5 1,-2 3,-5 3,-7m-9 -8c1,-1 1,-2 2,-4 1,-1 1,-3 1,-4m10 17c0,-1 -2,-2 -3,-1m2 -2c0,0 -1,-1 -1,-1 -1,0 -2,0 -2,0m3 -1c-1,-1 -1,-2 -2,-2 -1,0 -1,0 -2,0m2 -4c-1,-2 -3,-2 -4,-2m3 -1c-1,-1 -1,-1 -2,-1 -1,0 -1,0 -2,0m2 -2c0,0 -1,0 -2,0 0,0 -1,0 -2,0m3 -2c-1,-1 -2,-1 -3,-1m-2 -7c0,0 8,5 15,14 8,8 14,20 15,34m-2 -2c0,0 1,-5 1,-7m-4 4c0,0 2,-9 1,-12m-8 1c0,0 0,-3 0,-6 0,-3 0,-8 0,-10m-2 13c0,0 1,-2 0,-5 0,-4 0,-8 -1,-11m-1 14c1,-1 1,-4 0,-7 0,-3 -1,-7 -1,-9m-1 12c0,-1 0,-4 -1,-7 0,-3 0,-6 -1,-7m16 35c0,0 2,-6 2,-9m-7 3c0,0 0,-3 1,-7 0,-3 0,-7 0,-9m9 23c0,-3 -1,-3 -2,-4m2 -1c0,-2 -2,-4 -3,-3m2 -2c0,-1 -2,-4 -3,-3m2 -1c0,0 -1,-3 -3,-3m2 -1c0,-2 -3,-3 -4,-2m2 -2c0,-2 -3,-3 -4,-1m-5 -12c0,-1 -3,-1 -4,1m-10 -8c0,0 1,3 1,5m-3 -7c0,0 0,3 0,4m9 14c0,-2 -1,-9 -2,-12m16 34c0,0 0,-2 0,-5 1,-3 1,-6 1,-8m-3 11c0,0 1,-2 1,-5 1,-4 1,-7 0,-9m-3 10c0,0 0,-2 0,-6 0,-3 0,-7 0,-10m-13 -4c0,-2 -1,-8 -2,-11m19 15c0,-2 -3,-1 -4,0m2 -3c-1,0 -3,-1 -4,0m2 -3c-1,-1 -4,-1 -5,0m0 -5c-1,-2 -3,-1 -5,0m3 -3c-2,-1 -4,0 -5,1m2 -3c-1,0 -4,0 -5,1m2 -3c-2,-1 -3,0 -4,1m-6 -1c0,0 9,-3 20,-2 11,1 23,12 30,24m-4 -1c0,0 -1,-1 -1,-3 0,-1 0,-3 -1,-4m-4 5c0,0 0,-2 -1,-5 0,-2 0,-5 -1,-7m-12 6c0,0 -1,-3 -1,-6 0,-3 -1,-7 -2,-8m-1 12c0,0 0,-2 0,-5 0,-3 -1,-6 -3,-8m0 12c1,0 0,-3 0,-5 -1,-3 -2,-5 -3,-6m0 10c0,-1 0,-3 -1,-5 0,-3 -1,-4 -2,-5m30 22c0,0 0,-2 -1,-4 0,-2 0,-5 -1,-6m-9 5c0,0 0,-3 -1,-7 0,-3 -1,-6 -2,-8m22 17c-2,-2 -4,-2 -5,-2m3 -2c-1,-2 -5,-2 -6,-2m3 -2c-1,-2 -5,-3 -6,-2m2 -2c0,0 -3,-2 -6,-1m3 -2c-1,-2 -5,-2 -7,0m3 -3c0,-2 -4,-1 -5,1m-8 -7c-2,0 -5,2 -6,4m-12 2c0,0 2,2 2,4m-4 -4c0,0 0,2 0,3m11 5c0,-1 0,-3 -1,-5 0,-1 -1,-3 -2,-3m27 18c0,0 0,-2 0,-5 -1,-3 -1,-6 -2,-7m0 11c0,0 -1,-3 -1,-6 0,-3 -1,-6 -2,-8m-3 11c0,0 0,-3 -1,-6 0,-3 -1,-6 -2,-8m-16 7c0,-1 0,-3 -1,-4 -1,-1 -1,-3 -2,-3m25 -3c-1,-1 -4,1 -6,2m3 -4c-2,1 -5,2 -6,4m3 -5c-2,0 -5,2 -6,4m-2 -4c-2,0 -4,3 -5,4m2 -4c-2,1 -3,3 -5,5m1 -3c-1,0 -4,3 -4,4m1 -3c-2,0 -3,1 -4,3m-3 -1c0,0 6,-6 15,-10 10,-5 22,-4 32,-1m-3 2c0,0 -3,-3 -4,-3m-1 5c0,0 -1,-1 -2,-3 -1,-1 -3,-3 -4,-3m-6 8c0,0 -1,-2 -3,-3 -2,-2 -4,-3 -6,-4m6 7c0,0 -1,-1 -3,-3 -1,-1 -4,-2 -6,-2m6 6c0,-1 -1,-2 -3,-3 -2,-1 -4,-2 -6,-1m6 4c0,0 -2,-1 -4,-2 -1,0 -3,-1 -4,-1m31 -1c0,0 0,-1 -1,-2 -1,-1 -2,-2 -3,-3m-5 8c0,0 -1,-2 -3,-4 -1,-2 -4,-4 -5,-4m22 0c-2,-1 -3,0 -4,1m1 -2c-2,-1 -4,0 -5,1m1 -2c-1,-1 -4,0 -5,2m1 -3c0,0 -3,0 -4,2m1 -3c-1,0 -2,1 -3,1 -1,1 -2,2 -2,3m1 -3c-2,-1 -4,1 -4,2m-9 1c-2,0 -3,3 -3,4m-9 7c0,0 2,0 4,1m-6 0c0,0 2,1 2,2m12 -4c-1,0 -2,-1 -4,-1 -1,-1 -2,-1 -3,-1m28 -1c0,0 0,-2 -2,-3 -1,-2 -2,-3 -4,-4m4 7c0,0 -1,-1 -2,-3 -1,-2 -3,-4 -5,-4m3 8c0,0 -1,-2 -3,-4 -2,-1 -4,-3 -6,-3m-10 11c0,-1 -1,-1 -3,-2 -1,0 -2,-1 -3,-1m19 -12c-1,-1 -3,2 -3,3m0 -3c-1,1 -1,1 -2,2 0,1 -1,2 -1,2m0 -3c-1,0 -2,1 -2,2 -1,1 -1,2 -1,3m-3 -2c-2,1 -3,3 -3,5m0 -3c-1,0 -1,1 -1,2 -1,1 -1,2 -1,2m-1 -2c0,0 -1,1 -1,2 0,1 0,2 0,2m-1 -2c-2,1 -2,2 -2,3m2 1c0,0 3,-8 9,-16 7,-9 18,-18 30,-22m-2 3c0,0 -5,0 -6,0m2 4c0,0 -1,0 -4,0 -2,0 -4,0 -6,0m0 11c0,0 -2,1 -4,1 -3,0 -6,0 -8,0m9 2c0,0 -1,0 -3,0 -3,0 -6,0 -8,1m9 2c-1,0 -2,0 -4,0 -3,0 -5,0 -6,1m7 2c-1,0 -2,0 -4,0 -2,0 -4,0 -5,0m29 -22c0,0 -5,0 -8,0m1 8c0,0 -2,0 -5,0 -2,1 -6,1 -7,1m20 -15c-2,1 -3,2 -3,3m-1 -2c-2,0 -3,3 -3,4m-1 -3c-2,0 -4,4 -3,5m-1 -3c0,0 -3,3 -2,5m-2 -3c-1,1 -2,5 -2,6m-1 -3c-2,0 -2,4 -1,6m-9 5c-1,1 -1,4 0,5m-5 11c0,0 2,-1 3,-1m-4 3c0,0 2,0 2,1m9 -8c0,-1 -2,-1 -3,-1 -2,0 -4,0 -4,1m26 -21c0,0 -1,0 -3,0 -2,0 -5,0 -7,1m9 1c0,0 -2,0 -5,0 -2,0 -5,0 -7,1m8 3c0,0 -2,1 -5,1 -2,0 -5,0 -7,0m-4 16c-2,0 -6,0 -7,1m11 -22c-2,0 -1,4 -1,5m-2 -3c0,2 -1,5 0,6m-2 -4c-1,2 -1,5 0,7m-4 0c-1,1 -1,4 0,5m-2 -3c-1,2 0,4 1,6m-2 -3c-1,2 0,5 1,6m-3 -2c0,1 0,2 1,4m-3 2c0,0 2,-10 5,-21 4,-12 13,-28 26,-37m-2 6c0,0 -5,0 -7,1m3 6c0,0 -2,0 -4,0 -2,1 -5,1 -6,3m2 14c0,0 -2,0 -5,1 -2,0 -5,1 -6,2m10 1c0,0 -2,0 -4,0 -3,1 -5,1 -7,4m10 0c-1,-1 -3,0 -5,0 -2,1 -5,2 -6,3m10 1c-1,-1 -3,0 -6,0 -2,1 -4,1 -5,2m24 -35c0,0 -1,0 -3,0 -2,1 -4,1 -6,2m2 12c0,0 -2,0 -5,1 -2,0 -5,1 -7,3m19 -28c-2,2 -2,4 -3,5m-1 -3c-2,2 -3,6 -3,8m-1 -3c-2,1 -4,6 -3,7m-2 -3c0,0 -2,4 -1,7m-2 -3c-1,2 -2,7 -1,8m-2 -3c-1,1 -1,6 0,7m-6 8c0,2 0,6 2,6m-3 14c0,0 3,-2 5,-2m-5 5c0,0 2,-1 3,0m8 -12c-1,0 -3,0 -5,0 -2,1 -3,1 -4,2m20 -31c0,0 -2,0 -4,1 -2,0 -5,1 -6,2m8 1c0,0 -2,0 -4,0 -3,0 -5,1 -7,3m8 3c0,0 -2,0 -4,1 -3,0 -5,1 -7,3m3 19c-1,-1 -3,0 -4,0 -2,1 -4,1 -4,2m4 -28c-1,1 0,5 1,6m-3 -2c0,2 1,5 2,6m-3 -3c-1,2 1,6 2,7m-4 1c0,2 1,5 2,6m-3 -2c0,2 1,4 2,5m-3 -1c0,1 1,4 3,5m-4 -1c0,2 1,3 2,4m-1 7c0,0 2,-10 1,-21 -2,-12 -9,-26 -18,-37m0 5c0,0 1,0 2,1 2,1 3,1 4,2m-5 3c0,0 2,1 4,2 2,1 5,2 6,3m-5 10c0,0 2,2 5,3 3,1 5,3 6,4m-10 -3c0,0 2,1 5,2 2,1 4,3 5,6m-9 -4c1,0 3,1 5,2 2,2 4,3 4,5m-8 -3c1,0 3,1 5,2 1,2 3,3 3,4m-17 -36c0,0 1,0 3,1 2,1 4,2 5,3m-5 8c0,0 3,1 6,2 2,1 5,3 7,5m-12 -27c1,2 0,4 0,5m2 -2c2,2 2,6 1,7m3 -2c1,1 1,5 0,6m2 -2c0,0 2,3 0,6m3 -2c1,1 1,5 -1,7m3 -3c1,1 0,5 -1,6m5 10c0,1 -2,4 -3,5m-1 12c0,0 -1,-2 -3,-3m3 6c0,0 -2,-1 -3,-1m-4 -13c1,0 3,1 4,2 1,1 3,2 3,3m-16 -33c0,0 2,1 5,2 2,1 5,2 6,3m-10 -2c0,0 3,0 5,2 3,1 6,2 7,4m-10 0c0,0 3,1 6,2 2,1 5,3 6,5m-5 16c1,0 2,1 4,2 1,1 2,2 2,3m2 -26c1,1 -1,4 -2,5m3 -2c0,2 -1,5 -3,5m4 -2c0,3 -2,5 -3,6m3 3c0,2 -2,4 -3,4m3 -1c0,2 -2,3 -3,4m3 0c-1,1 -3,4 -4,4m3 0c0,2 -1,2 -2,3m-3 4c0,0 -2,-8 -7,-18 -6,-10 -19,-21 -33,-26m3 4c0,0 5,0 7,0m-3 5c0,0 2,0 4,0 3,0 6,0 7,1m0 13c0,0 2,0 5,0 3,0 6,0 8,0m-11 3c0,0 2,-1 5,-1 2,0 6,0 8,2m-10 2c0,-1 2,-1 5,-1 2,0 5,1 6,1m-8 3c1,-1 3,-1 5,-1 2,0 4,1 5,1m-31 -25c0,0 1,0 3,-1 2,0 4,0 6,1m-1 10c0,0 3,0 6,0 3,0 6,0 8,1m-23 -20c3,1 3,3 3,4m1 -2c3,0 4,4 4,5m1 -3c2,0 4,5 4,6m1 -3c0,0 3,3 3,6m1 -4c2,1 3,6 2,8m2 -4c1,0 2,5 1,6m9 6c0,2 0,5 -1,6m4 12c0,0 -2,-1 -3,-1m4 3c0,0 -1,0 -2,1m-9 -10c1,0 2,0 4,0 1,0 3,0 4,1m-28 -23c0,0 2,0 5,0 2,0 5,0 7,0m-9 3c0,0 2,-1 4,-1 3,0 6,0 8,1m-9 5c0,0 3,0 6,-1 3,0 6,0 8,1m3 17c1,0 2,0 3,0 1,0 3,1 3,1m-9 -24c2,0 1,4 0,6m3 -3c0,2 0,5 -1,6m3 -3c1,1 0,5 -1,6m4 0c1,2 0,5 -1,6m3 -3c0,2 -1,4 -2,6m3 -2c0,1 -1,4 -2,5m2 -1c1,1 0,2 0,4m-1 4c0,0 -4,-5 -13,-11 -9,-6 -21,-12 -34,-13m4 3c0,0 3,-2 5,-2m-1 6c0,0 6,-3 9,-3m4 12c0,0 2,-1 4,-2 2,-1 5,-2 7,-3m-8 7c0,0 1,-2 3,-3 2,-1 5,-2 8,-2m-8 6c0,0 2,-1 4,-2 2,-1 4,-2 6,-2m-7 6c1,-2 7,-4 9,-4m-33 -12c0,0 4,-2 7,-3m2 10c0,0 2,-1 4,-2 2,-1 5,-2 7,-2m-23 -10c2,0 3,2 3,3m0 -3c2,0 5,2 5,4m0 -3c1,0 4,3 4,4m0 -3c0,0 3,2 4,4m0 -3c2,0 4,4 4,6m0 -4c2,0 3,3 3,5m10 2c1,0 2,3 1,5m8 7c0,0 -2,0 -4,1m5 1c0,0 -1,0 -2,2m-11 -4c1,-1 6,-4 8,-4m-30 -9c0,0 5,-4 8,-3m-6 4c0,0 6,-4 10,-3m-5 7c0,0 1,-1 4,-2 2,-1 5,-2 6,-2m8 13c1,-1 6,-3 8,-3m-17 -16c1,0 2,4 2,5m1 -3c1,1 2,4 1,5m1 -4c2,2 3,4 2,6m4 -2c2,2 2,4 2,5m1 -3c1,2 1,4 1,5m1 -2c1,1 1,3 0,5m2 -3c1,1 1,2 1,4m-1 1c0,0 -5,0 -14,1 -8,1 -20,6 -28,13m3 0c0,0 1,-1 1,-2 0,-1 1,-2 2,-3m3 4c0,0 0,-2 1,-3 0,-2 1,-4 3,-5m9 4c0,0 0,-2 1,-3 0,-2 2,-4 3,-4m-2 6c0,0 0,-1 1,-3 0,-1 2,-3 4,-4m-3 7c0,-1 1,-2 2,-3 0,-2 2,-3 3,-4m-2 6c0,-1 1,-2 2,-3 0,-2 2,-3 2,-3m-27 12c0,0 0,-1 1,-2 0,-1 1,-3 2,-4m8 3c0,0 0,-1 1,-3 0,-2 2,-4 3,-5m-22 10c2,-2 4,-1 4,-1m-1 -2c1,-1 4,-1 5,-1m-2 -1c1,-1 5,-2 6,-1m-1 -2c0,0 2,-1 4,0m-1 -2c1,0 4,0 5,1m-1 -2c1,-1 3,0 3,1m9 -3c2,0 3,1 2,2m9 0c0,0 -2,1 -2,2m3 -2c0,0 0,1 0,1m-9 4c0,-1 0,-2 1,-3 1,-1 2,-2 2,-2m-23 11c0,0 0,-2 0,-3 1,-2 2,-3 3,-4m-1 6c0,0 0,-2 1,-3 1,-2 2,-4 3,-5m1 7c0,0 0,-2 1,-4 0,-1 2,-3 3,-4m11 3c0,-1 1,-2 2,-2 0,-1 1,-2 2,-2m-17 -1c1,-1 2,1 2,2m1 -3c0,1 2,2 2,3m0 -3c2,0 3,1 2,2m4 -2c2,0 2,1 2,1m1 -1c1,0 0,1 1,1m1 -1c0,0 1,1 1,2m1 -2c1,0 1,1 1,1m6 3c0,0 -7,2 -16,8 -9,6 -19,16 -24,30m4 -1c0,0 0,-6 0,-8m4 5c0,0 0,-2 0,-5 1,-3 1,-6 2,-8m10 5c0,0 0,-3 1,-6 0,-4 0,-8 1,-10m1 13c0,0 0,-2 0,-5 0,-4 0,-8 2,-10m1 12c-1,0 -1,-3 -1,-6 1,-3 1,-6 2,-8m1 11c0,-1 0,-4 0,-6 1,-3 1,-5 2,-6m-24 31c0,0 0,-2 0,-4 0,-2 0,-5 1,-7m8 5c0,0 0,-3 0,-7 1,-3 1,-7 2,-9m-18 20c1,-2 3,-2 4,-2m-3 -2c1,-3 4,-4 5,-3m-2 -2c0,-2 4,-3 5,-2m-2 -2c0,0 2,-3 5,-2m-3 -2c1,-2 4,-2 6,-1m-3 -3c1,-1 4,-1 5,1m6 -10c1,-1 4,0 5,2m10 -5c0,0 -1,2 -1,4m3 -5c0,0 0,2 0,2m-8 11c-1,-1 -1,-3 0,-5 0,-2 0,-4 1,-5m-21 30c0,0 0,-3 0,-6 0,-2 0,-6 1,-7m1 11c0,0 0,-3 0,-6 0,-3 0,-7 1,-9m4 12c0,0 0,-3 0,-6 0,-4 0,-8 1,-10m14 -2c0,-1 0,-3 0,-4 1,-2 1,-3 2,-4m-21 8c0,-1 4,0 5,1m-2 -3c1,0 3,0 4,2m-2 -4c2,-1 4,0 5,2m1 -6c1,0 4,1 5,2m-2 -3c1,-1 3,1 4,2m-1 -3c1,0 3,1 4,2m-1 -3c1,0 2,0 3,1m-75 95l19 0 0 31 -19 0 0 -31zm-56 -41l18 0 0 18 -18 0 0 -18zm-32 41l18 0 0 19 -18 0 0 -19zm31 0l18 0 0 18 -18 0 0 -18zm42 -41l19 0 0 18 -19 0 0 -18z"/>
 </g>
</svg>
